<svg width="130" height="24" viewBox="0 0 130 24" fill="none" xmlns="http://www.w3.org/2000/svg">
<path d="M36.748 13.4404C36.748 12.6611 36.8415 11.9684 37.0283 11.3623C37.2197 10.7516 37.4977 10.2389 37.8623 9.82422C38.2314 9.40495 38.6826 9.08594 39.2158 8.86719C39.7536 8.64844 40.3711 8.53906 41.0684 8.53906C41.3327 8.53906 41.6016 8.55957 41.875 8.60059C42.153 8.63704 42.4059 8.68034 42.6338 8.73047C42.8981 8.78516 43.1533 8.84668 43.3994 8.91504C43.3903 9.02897 43.3721 9.14974 43.3447 9.27734C43.3219 9.38672 43.2878 9.51432 43.2422 9.66016C43.1966 9.80143 43.1351 9.95182 43.0576 10.1113C42.8662 10.043 42.6611 9.98372 42.4424 9.93359C42.2555 9.88802 42.0413 9.84701 41.7998 9.81055C41.5628 9.77409 41.319 9.75586 41.0684 9.75586C40.6445 9.75586 40.2617 9.84245 39.9199 10.0156C39.5827 10.1888 39.2956 10.4372 39.0586 10.7607C38.8262 11.0798 38.6462 11.4671 38.5186 11.9229C38.3955 12.374 38.334 12.8799 38.334 13.4404C38.334 13.9964 38.3932 14.4932 38.5117 14.9307C38.6302 15.3682 38.8057 15.7373 39.0381 16.0381C39.2705 16.3389 39.5553 16.569 39.8926 16.7285C40.2344 16.888 40.6263 16.9678 41.0684 16.9678C41.1413 16.9678 41.2233 16.9678 41.3145 16.9678C41.4056 16.9678 41.4967 16.9655 41.5879 16.9609C41.679 16.9564 41.7679 16.9541 41.8545 16.9541C41.9411 16.9495 42.0186 16.9427 42.0869 16.9336C42.0869 16.7878 42.0846 16.6305 42.0801 16.4619C42.0755 16.2933 42.071 16.1224 42.0664 15.9492C42.0618 15.7715 42.055 15.596 42.0459 15.4229C42.0413 15.2497 42.0368 15.0833 42.0322 14.9238C42.014 14.5501 41.998 14.1742 41.9844 13.7959C42.1484 13.7503 42.2965 13.7207 42.4287 13.707C42.5654 13.6934 42.6816 13.6865 42.7773 13.6865C42.873 13.6865 42.9665 13.6934 43.0576 13.707C43.1533 13.7207 43.2399 13.7344 43.3174 13.748C43.404 13.7663 43.486 13.7845 43.5635 13.8027C43.5635 14.3405 43.5589 14.8577 43.5498 15.3545C43.5452 15.8467 43.5384 16.2842 43.5293 16.667C43.5156 17.1182 43.5042 17.5374 43.4951 17.9248L43.3652 18.0137C43.1237 18.0456 42.8753 18.0729 42.6201 18.0957C42.4014 18.1185 42.1553 18.1367 41.8818 18.1504C41.6084 18.1686 41.3372 18.1777 41.0684 18.1777C40.3711 18.1777 39.7536 18.0775 39.2158 17.877C38.6826 17.6764 38.2314 17.3779 37.8623 16.9814C37.4977 16.5804 37.2197 16.0859 37.0283 15.498C36.8415 14.9056 36.748 14.2197 36.748 13.4404ZM46.0107 9.83105C45.8831 9.83105 45.7624 9.80827 45.6484 9.7627C45.5391 9.71712 45.4411 9.6556 45.3545 9.57812C45.2725 9.50065 45.2064 9.41178 45.1562 9.31152C45.1061 9.20671 45.0811 9.09505 45.0811 8.97656C45.0811 8.85352 45.1061 8.73958 45.1562 8.63477C45.2064 8.52995 45.2725 8.4388 45.3545 8.36133C45.4411 8.28385 45.5391 8.22461 45.6484 8.18359C45.7624 8.13802 45.8831 8.11523 46.0107 8.11523C46.1383 8.11523 46.2591 8.13802 46.373 8.18359C46.487 8.22461 46.585 8.28385 46.667 8.36133C46.7536 8.4388 46.8219 8.52995 46.8721 8.63477C46.9222 8.73958 46.9473 8.85352 46.9473 8.97656C46.9473 9.09505 46.9222 9.20671 46.8721 9.31152C46.8219 9.41178 46.7536 9.50065 46.667 9.57812C46.585 9.6556 46.487 9.71712 46.373 9.7627C46.2591 9.80827 46.1383 9.83105 46.0107 9.83105ZM45.2246 11.0137H46.6465V16.8516L47.0498 17.1387V18H46.6602L46.6465 17.9863V18C46.1953 18 45.8444 17.9089 45.5938 17.7266C45.3477 17.5443 45.2246 17.2435 45.2246 16.8242V11.0137ZM49.0732 12.0732H48.1777C48.1732 12.0231 48.1686 11.9684 48.1641 11.9092C48.1595 11.859 48.1549 11.7998 48.1504 11.7314C48.1504 11.6631 48.1504 11.5879 48.1504 11.5059C48.1504 11.4238 48.1527 11.3486 48.1572 11.2803C48.1618 11.2074 48.1686 11.1185 48.1777 11.0137H49.0732V9.92676L49.8594 9.03809H50.4678V11.0137H52.4023C52.4115 11.0592 52.4183 11.1139 52.4229 11.1777C52.432 11.2415 52.4365 11.3031 52.4365 11.3623C52.4365 11.4671 52.4251 11.5628 52.4023 11.6494C52.3841 11.736 52.3636 11.8112 52.3408 11.875C52.3135 11.9479 52.2816 12.014 52.2451 12.0732H50.4678V16.0381C50.4678 16.3708 50.5225 16.6123 50.6318 16.7627C50.7458 16.9131 50.9258 16.9883 51.1719 16.9883C51.2767 16.9883 51.3861 16.9769 51.5 16.9541C51.6185 16.9268 51.7301 16.8949 51.835 16.8584C51.9535 16.8174 52.0742 16.7718 52.1973 16.7217C52.2884 16.8402 52.359 16.9564 52.4092 17.0703C52.4639 17.1842 52.5026 17.2868 52.5254 17.3779C52.5527 17.4827 52.5687 17.5807 52.5732 17.6719C52.4456 17.7585 52.3021 17.8359 52.1426 17.9043C52.0013 17.9635 51.8327 18.016 51.6367 18.0615C51.4408 18.1117 51.2152 18.1367 50.96 18.1367C50.6045 18.1367 50.306 18.0911 50.0645 18C49.8275 17.9134 49.6338 17.7835 49.4834 17.6104C49.3376 17.4326 49.2327 17.2139 49.1689 16.9541C49.1051 16.6898 49.0732 16.3867 49.0732 16.0449V12.0732ZM53.9951 8.7168H55.5469V12.6611H59.1699V8.7168H60.7148V18H59.1699V13.8506H55.5469V18H53.9951V8.7168ZM62.5674 11.0137H64.0303V15.5801C64.0303 16.0677 64.126 16.43 64.3174 16.667C64.5088 16.8994 64.8301 17.0156 65.2812 17.0156C65.5 17.0156 65.6982 16.9974 65.876 16.9609C66.0537 16.9245 66.2087 16.8812 66.3408 16.8311C66.4912 16.7764 66.6257 16.7126 66.7441 16.6396V11.0137H68.2139V16.8721L68.8223 17.5693V18H67.5029L66.9629 17.46H66.7031C66.6667 17.4873 66.5983 17.5374 66.498 17.6104C66.3978 17.6833 66.2679 17.7607 66.1084 17.8428C65.9535 17.9202 65.7734 17.9886 65.5684 18.0479C65.3633 18.1071 65.14 18.1367 64.8984 18.1367C64.5156 18.1367 64.1784 18.0798 63.8867 17.9658C63.5951 17.8519 63.3512 17.6901 63.1553 17.4805C62.9593 17.2663 62.8112 17.0111 62.7109 16.7148C62.6152 16.4141 62.5674 16.0791 62.5674 15.71V11.0137ZM70.2236 8.16309H71.6729V11.4238H71.7139C71.7458 11.3965 71.8096 11.3486 71.9053 11.2803C72.001 11.2119 72.124 11.1436 72.2744 11.0752C72.4294 11.0068 72.6071 10.9476 72.8076 10.8975C73.0127 10.8428 73.2428 10.8154 73.498 10.8154C73.8444 10.8154 74.1794 10.8701 74.5029 10.9795C74.8311 11.0889 75.1204 11.278 75.3711 11.5469C75.6217 11.8158 75.8223 12.1803 75.9727 12.6406C76.123 13.0964 76.1982 13.6729 76.1982 14.3701C76.1982 14.999 76.1071 15.5482 75.9248 16.0176C75.7425 16.487 75.4964 16.8789 75.1865 17.1934C74.8766 17.5078 74.5143 17.7448 74.0996 17.9043C73.6895 18.0592 73.2542 18.1367 72.7939 18.1367C72.3792 18.1367 72.0124 18.1208 71.6934 18.0889C71.3789 18.057 71.1123 18.0205 70.8936 17.9795C70.6383 17.9339 70.415 17.8815 70.2236 17.8223V8.16309ZM71.6729 16.9268C71.7367 16.9541 71.8346 16.986 71.9668 17.0225C72.1035 17.0589 72.2767 17.0771 72.4863 17.0771C73.1927 17.0771 73.7305 16.8424 74.0996 16.373C74.4733 15.9036 74.6602 15.236 74.6602 14.3701C74.6602 13.887 74.6146 13.4883 74.5234 13.1738C74.4368 12.8594 74.3115 12.611 74.1475 12.4287C73.9834 12.2419 73.7829 12.112 73.5459 12.0391C73.3135 11.9661 73.0492 11.9297 72.7529 11.9297C72.6299 11.9297 72.5046 11.9502 72.377 11.9912C72.2493 12.0277 72.1331 12.071 72.0283 12.1211C71.9053 12.1758 71.7868 12.2373 71.6729 12.3057V16.9268ZM81.749 8.7168H87.0742C87.0742 8.7487 87.0765 8.78288 87.0811 8.81934C87.0856 8.85124 87.0879 8.8877 87.0879 8.92871C87.0924 8.96517 87.0947 9.00618 87.0947 9.05176C87.0947 9.12923 87.0788 9.24772 87.0469 9.40723C87.0195 9.56217 86.9557 9.74219 86.8555 9.94727C86.4772 9.93359 86.0853 9.91992 85.6797 9.90625C85.3333 9.89714 84.9505 9.88802 84.5312 9.87891C84.112 9.86523 83.7018 9.8584 83.3008 9.8584V12.6611C83.4329 12.6611 83.5811 12.6611 83.7451 12.6611C83.9137 12.6566 84.0869 12.652 84.2646 12.6475C84.4469 12.6429 84.6292 12.6383 84.8115 12.6338C84.9938 12.6292 85.1715 12.6247 85.3447 12.6201C85.7458 12.6064 86.1582 12.5951 86.582 12.5859C86.582 12.6224 86.5843 12.6611 86.5889 12.7021C86.5934 12.7386 86.5957 12.7819 86.5957 12.832C86.6003 12.8776 86.6025 12.9255 86.6025 12.9756C86.6025 12.9984 86.598 13.0439 86.5889 13.1123C86.5843 13.1761 86.5729 13.249 86.5547 13.3311C86.541 13.4131 86.5228 13.4951 86.5 13.5771C86.4818 13.6592 86.459 13.7275 86.4316 13.7822C86.0078 13.7822 85.5999 13.7799 85.208 13.7754C85.0394 13.7754 84.8662 13.7754 84.6885 13.7754C84.5107 13.7754 84.3376 13.7754 84.1689 13.7754C84.0049 13.7708 83.8477 13.7686 83.6973 13.7686C83.5469 13.7686 83.4147 13.7686 83.3008 13.7686V16.8311C83.7018 16.8311 84.1234 16.8242 84.5654 16.8105C85.012 16.7969 85.4268 16.7832 85.8096 16.7695C86.2562 16.7513 86.696 16.7308 87.1289 16.708C87.1289 16.749 87.1312 16.7923 87.1357 16.8379C87.1403 16.8743 87.1426 16.9199 87.1426 16.9746C87.1471 17.0247 87.1494 17.0749 87.1494 17.125C87.1494 17.2207 87.1426 17.346 87.1289 17.501C87.1152 17.6559 87.0856 17.8223 87.04 18H81.749V8.7168ZM90.2598 14.418C90.0729 14.1536 89.8861 13.8779 89.6992 13.5908C89.5124 13.2992 89.3255 13.0075 89.1387 12.7158C88.9518 12.4196 88.765 12.1279 88.5781 11.8408C88.3913 11.5537 88.2044 11.278 88.0176 11.0137H89.583L90.9365 13.2012L91.1348 13.625L91.3262 13.2012C91.5632 12.8457 91.791 12.4811 92.0098 12.1074C92.2285 11.7337 92.4541 11.3691 92.6865 11.0137H94.2383L91.9072 14.5342L94.1973 18H92.6318L91.2031 15.7168L91.0186 15.3135L90.834 15.7168L89.4531 18H87.915L90.2598 14.418ZM96.8496 20.7686H95.3867V11.9229L94.8467 11.3691V10.9385H96.0977L96.6377 11.4102L96.8906 11.4238C96.918 11.3965 96.9772 11.3509 97.0684 11.2871C97.1641 11.2188 97.2894 11.1504 97.4443 11.082C97.5993 11.0091 97.7839 10.9476 97.998 10.8975C98.2122 10.8428 98.4515 10.8154 98.7158 10.8154C99.0531 10.8154 99.3812 10.8701 99.7002 10.9795C100.024 11.0889 100.309 11.278 100.555 11.5469C100.805 11.8158 101.006 12.1803 101.156 12.6406C101.307 13.0964 101.382 13.6729 101.382 14.3701C101.382 14.9717 101.288 15.5072 101.102 15.9766C100.919 16.446 100.673 16.8402 100.363 17.1592C100.053 17.4782 99.6911 17.722 99.2764 17.8906C98.8662 18.0547 98.4333 18.1367 97.9775 18.1367C97.859 18.1367 97.7314 18.1322 97.5947 18.123C97.4626 18.1139 97.3418 18.1025 97.2324 18.0889C97.1003 18.0752 96.9727 18.0592 96.8496 18.041V20.7686ZM96.8496 16.9883C96.9271 17.0111 97.0319 17.0316 97.1641 17.0498C97.2962 17.068 97.4421 17.0771 97.6016 17.0771C97.9434 17.0771 98.2533 17.0133 98.5312 16.8857C98.8092 16.7536 99.0439 16.5713 99.2354 16.3389C99.4313 16.1019 99.5817 15.8171 99.6865 15.4844C99.7959 15.1517 99.8506 14.7803 99.8506 14.3701C99.8506 13.8643 99.805 13.4541 99.7139 13.1396C99.6273 12.8206 99.4997 12.5723 99.3311 12.3945C99.167 12.2122 98.9665 12.0892 98.7295 12.0254C98.4925 11.9616 98.2282 11.9297 97.9365 11.9297C97.8089 11.9297 97.6813 11.9502 97.5537 11.9912C97.4261 12.0277 97.3099 12.071 97.2051 12.1211C97.082 12.1758 96.9635 12.2373 96.8496 12.3057V16.9883ZM102.776 8.16309H104.191V16.8516L104.595 17.1387V18H104.205L104.191 17.9863V18C103.74 18 103.392 17.9089 103.146 17.7266C102.899 17.5443 102.776 17.2435 102.776 16.8242V8.16309ZM105.757 14.5068C105.757 13.9053 105.837 13.3743 105.996 12.9141C106.16 12.4538 106.388 12.0687 106.68 11.7588C106.976 11.4489 107.327 11.2142 107.732 11.0547C108.143 10.8952 108.594 10.8154 109.086 10.8154C109.592 10.8154 110.048 10.8906 110.453 11.041C110.859 11.1868 111.203 11.4102 111.485 11.7109C111.768 12.0117 111.984 12.3877 112.135 12.8389C112.285 13.2855 112.36 13.8096 112.36 14.4111C112.36 15.0127 112.283 15.5459 112.128 16.0107C111.978 16.4756 111.759 16.8652 111.472 17.1797C111.189 17.4941 110.845 17.7334 110.439 17.8975C110.038 18.057 109.587 18.1367 109.086 18.1367C108.566 18.1367 108.099 18.0615 107.685 17.9111C107.274 17.7562 106.926 17.5283 106.639 17.2275C106.356 16.9222 106.137 16.5439 105.982 16.0928C105.832 15.637 105.757 15.1084 105.757 14.5068ZM109.086 17.0088C109.387 17.0088 109.646 16.945 109.865 16.8174C110.089 16.6852 110.271 16.5052 110.412 16.2773C110.553 16.0449 110.658 15.7715 110.727 15.457C110.795 15.138 110.829 14.7894 110.829 14.4111C110.829 13.5954 110.69 12.9733 110.412 12.5449C110.134 12.1165 109.692 11.9023 109.086 11.9023C108.781 11.9023 108.514 11.9684 108.286 12.1006C108.063 12.2282 107.876 12.4082 107.726 12.6406C107.58 12.873 107.47 13.1488 107.397 13.4678C107.325 13.7868 107.288 14.1331 107.288 14.5068C107.288 15.3317 107.434 15.9561 107.726 16.3799C108.022 16.7992 108.475 17.0088 109.086 17.0088ZM114.685 10.9385L115.389 11.6768C115.439 11.5628 115.503 11.4557 115.58 11.3555C115.662 11.2507 115.756 11.1595 115.86 11.082C115.97 11.0046 116.09 10.943 116.223 10.8975C116.359 10.8519 116.507 10.8291 116.667 10.8291C116.799 10.8291 116.927 10.8405 117.05 10.8633C117.173 10.8815 117.307 10.9157 117.453 10.9658C117.458 10.9749 117.462 11.0114 117.467 11.0752C117.476 11.139 117.48 11.2188 117.48 11.3145C117.48 11.3874 117.476 11.474 117.467 11.5742C117.458 11.6699 117.442 11.7702 117.419 11.875C117.401 11.9753 117.371 12.0755 117.33 12.1758C117.294 12.276 117.246 12.3626 117.187 12.4355L117.057 12.4697C116.965 12.4242 116.863 12.3854 116.749 12.3535C116.64 12.3216 116.526 12.3057 116.407 12.3057C116.225 12.3057 116.072 12.3193 115.949 12.3467C115.826 12.3695 115.726 12.3945 115.648 12.4219C115.557 12.4538 115.484 12.4902 115.43 12.5312V18H113.967V12.2646L113.427 11.7109V10.9385H114.685ZM118.205 14.5752C118.205 13.9189 118.285 13.3538 118.444 12.8799C118.604 12.4059 118.827 12.0163 119.114 11.7109C119.401 11.4056 119.743 11.1823 120.14 11.041C120.541 10.8952 120.98 10.8223 121.459 10.8223C121.901 10.8223 122.295 10.8975 122.642 11.0479C122.993 11.1937 123.289 11.401 123.53 11.6699C123.772 11.9388 123.956 12.2601 124.084 12.6338C124.212 13.0075 124.275 13.4199 124.275 13.8711C124.275 14.026 124.269 14.1696 124.255 14.3018C124.241 14.4339 124.225 14.5479 124.207 14.6436C124.189 14.7575 124.168 14.86 124.146 14.9512L119.661 14.9307C119.666 15.3363 119.709 15.6735 119.791 15.9424C119.873 16.2067 119.994 16.4163 120.153 16.5713C120.317 16.7262 120.522 16.8356 120.769 16.8994C121.015 16.9587 121.306 16.9883 121.644 16.9883C121.931 16.9883 122.188 16.9701 122.416 16.9336C122.644 16.8971 122.838 16.8538 122.997 16.8037C123.179 16.749 123.343 16.6852 123.489 16.6123C123.558 16.7718 123.61 16.9199 123.646 17.0566C123.688 17.1934 123.717 17.3118 123.735 17.4121C123.754 17.5306 123.767 17.6354 123.776 17.7266C123.626 17.804 123.444 17.8724 123.229 17.9316C123.047 17.9818 122.824 18.0273 122.56 18.0684C122.295 18.1139 121.99 18.1367 121.644 18.1367C121.097 18.1367 120.609 18.0752 120.181 17.9521C119.757 17.8291 119.397 17.6286 119.101 17.3506C118.809 17.068 118.586 16.7012 118.431 16.25C118.28 15.7943 118.205 15.236 118.205 14.5752ZM122.812 13.9326V13.7002C122.812 13.4131 122.776 13.1602 122.703 12.9414C122.635 12.7181 122.539 12.5312 122.416 12.3809C122.293 12.2305 122.147 12.1165 121.979 12.0391C121.81 11.9616 121.628 11.9229 121.432 11.9229C121.145 11.9229 120.892 11.9616 120.673 12.0391C120.454 12.112 120.27 12.2305 120.119 12.3945C119.973 12.554 119.864 12.7614 119.791 13.0166C119.718 13.2718 119.682 13.5771 119.682 13.9326H122.812ZM126.62 10.9385L127.324 11.6768C127.374 11.5628 127.438 11.4557 127.516 11.3555C127.598 11.2507 127.691 11.1595 127.796 11.082C127.905 11.0046 128.026 10.943 128.158 10.8975C128.295 10.8519 128.443 10.8291 128.603 10.8291C128.735 10.8291 128.862 10.8405 128.985 10.8633C129.108 10.8815 129.243 10.9157 129.389 10.9658C129.393 10.9749 129.398 11.0114 129.402 11.0752C129.411 11.139 129.416 11.2188 129.416 11.3145C129.416 11.3874 129.411 11.474 129.402 11.5742C129.393 11.6699 129.377 11.7702 129.354 11.875C129.336 11.9753 129.307 12.0755 129.266 12.1758C129.229 12.276 129.181 12.3626 129.122 12.4355L128.992 12.4697C128.901 12.4242 128.799 12.3854 128.685 12.3535C128.575 12.3216 128.461 12.3057 128.343 12.3057C128.16 12.3057 128.008 12.3193 127.885 12.3467C127.762 12.3695 127.661 12.3945 127.584 12.4219C127.493 12.4538 127.42 12.4902 127.365 12.5312V18H125.902V12.2646L125.362 11.7109V10.9385H126.62Z" fill="#1B1F23"/>
<g clip-path="url(#clip0_46595_109248)">
<path fill-rule="evenodd" clip-rule="evenodd" d="M12 0C5.37 0 0 5.37 0 12C0 17.31 3.435 21.795 8.205 23.385C8.805 23.49 9.03 23.13 9.03 22.815C9.03 22.53 9.015 21.585 9.015 20.58C6 21.135 5.22 19.845 4.98 19.17C4.845 18.825 4.26 17.76 3.75 17.475C3.33 17.25 2.73 16.695 3.735 16.68C4.68 16.665 5.355 17.55 5.58 17.91C6.66 19.725 8.385 19.215 9.075 18.9C9.18 18.12 9.495 17.595 9.84 17.295C7.17 16.995 4.38 15.96 4.38 11.37C4.38 10.065 4.845 8.985 5.61 8.145C5.49 7.845 5.07 6.615 5.73 4.965C5.73 4.965 6.735 4.65 9.03 6.195C9.99 5.925 11.01 5.79 12.03 5.79C13.05 5.79 14.07 5.925 15.03 6.195C17.325 4.635 18.33 4.965 18.33 4.965C18.99 6.615 18.57 7.845 18.45 8.145C19.215 8.985 19.68 10.05 19.68 11.37C19.68 15.975 16.875 16.995 14.205 17.295C14.64 17.67 15.015 18.39 15.015 19.515C15.015 21.12 15 22.41 15 22.815C15 23.13 15.225 23.505 15.825 23.385C20.565 21.795 24 17.295 24 12C24 5.37 18.63 0 12 0Z" fill="#1B1F23"/>
</g>
<defs>
<clipPath id="clip0_46595_109248">
<rect width="24" height="24" fill="white"/>
</clipPath>
</defs>
</svg>
