<svg width="32" height="32" viewBox="0 0 32 32" fill="none" xmlns="http://www.w3.org/2000/svg">
<g clip-path="url(#clip0_2698_16636)">
<path d="M26 7H20V6C19.9991 5.20462 19.6828 4.44206 19.1204 3.87964C18.5579 3.31722 17.7954 3.00087 17 3H15C14.2046 3.00087 13.4421 3.31722 12.8796 3.87964C12.3172 4.44206 12.0009 5.20462 12 6V7H6C5.20462 7.00087 4.44206 7.31722 3.87964 7.87964C3.31722 8.44206 3.00087 9.20462 3 10V15H29V10C28.9991 9.20462 28.6828 8.44206 28.1204 7.87964C27.5579 7.31722 26.7954 7.00087 26 7ZM14 6C14.0003 5.73489 14.1058 5.48073 14.2933 5.29327C14.4807 5.10581 14.7349 5.00034 15 5H17C17.2651 5.00024 17.5194 5.10567 17.7068 5.29316C17.8943 5.48064 17.9998 5.73486 18 6V7H14V6ZM17 17V18H15V17H17ZM19 17H29V23C28.9991 23.7954 28.6828 24.5579 28.1204 25.1204C27.5579 25.6828 26.7954 25.9991 26 26H6C5.20462 25.9991 4.44206 25.6828 3.87964 25.1204C3.31722 24.5579 3.00087 23.7954 3 23V17H13V19C13 19.2652 13.1054 19.5196 13.2929 19.7071C13.4804 19.8946 13.7348 20 14 20H18C18.2652 20 18.5196 19.8946 18.7071 19.7071C18.8946 19.5196 19 19.2652 19 19V17Z" fill="#194CFF"/>
</g>
<defs>
<clipPath id="clip0_2698_16636">
<rect width="32" height="32" fill="white"/>
</clipPath>
</defs>
</svg>
